<svg xmlns="http://www.w3.org/2000/svg" viewBox="0 0 512 311.11"><g id="Layer_2" data-name="Layer 2"><g id="Layer_1-2" data-name="Layer 1"><path d="M511.65,26.19A26.26,26.26,0,0,0,485.42,0h0L26.19.63A26.24,26.24,0,0,0,0,26.89l.36,258a26.2,26.2,0,0,0,26.22,26.19h0l459.19-.63A26.26,26.26,0,0,0,512,284.22Zm-55,.07L256,165.71,55,26.82ZM340.85,192l119,92.26-408,.56L171.54,192a13.11,13.11,0,1,0-16.07-20.73l-128.91,100L26.24,38.79,248.59,192.45a13.08,13.08,0,0,0,14.93,0L485.44,38.17l.33,233.06L356.92,171.3A13.11,13.11,0,0,0,340.85,192Z"/></g></g></svg>