<svg xmlns="http://www.w3.org/2000/svg" viewBox="0 0 544.69 364.39"><defs><style>.cls-1{fill:#d88c9a;}.cls-2{fill:#231f20;}.cls-3{fill:#f2d0a9;}.cls-4{fill:#f1e3d3;}</style></defs><g id="Layer_2" data-name="Layer 2"><g id="Layer_1-2" data-name="Layer 1"><path class="cls-1" d="M46,364.39c-25.36,0-46-16.64-46-37.1V316c0-17.4,3-31,9.12-41.41,5.74-9.8,15.14-20.05,28.74-31.34L202,109.39V93.13H107.86v21c0,20.47-20.63,37.12-46,37.12a55.59,55.59,0,0,1-18-3l-3.27-1.12c-17-5.83-28-19.23-28-34.15V82.76c0-29,4.91-48.4,15.45-60.93C40.24,7.34,61.79,0,92.11,0H218.94c30.27,0,51.84,7.32,64.11,21.75,7.36,8.67,12,20.59,14.17,36.7a57,57,0,0,1,7.54-.5h12.32c15.86,0,30.38,6.45,38.86,17.25L397,127.51l38-51.46C443.27,64.88,458.4,58,474.52,58h3.62c16.58,0,31.93,7.24,40.07,18.89s7.85,26-.74,37.44l-63.85,85,84,107.07c9,11.42,9.51,25.88,1.42,37.73s-23.52,19.2-40.29,19.2H485.19c-16,0-30.56-6.53-39-17.46l-50.31-65-45.38,63.84c-8.17,11.49-23.46,18.64-39.89,18.64h-5.42c-1.47,0-3-.06-4.44-.17-1.48.11-3,.17-4.44.17L46.05,364.39Zm242.88-96.23a43.63,43.63,0,0,0,6.41-1.68l42.91-58.94-46.79-60c-5,10.88-15.32,22.61-31.35,35.82L154.61,268.16Z"/><path class="cls-2" d="M518,316.34l-84.1-107.26a15.41,15.41,0,0,1-.23-19.34l64-85.17c9.2-12.24-1.73-27.89-19.47-27.89h-3.62c-8,0-15.46,3.4-19.56,9l-38.4,52c-8.69,11.77-29.72,12-38.8.42l-41.44-52.8c-4.17-5.32-11.43-8.54-19.24-8.54H304.76c-17.92,0-28.82,15.92-19.27,28.15L358,197.75a15.4,15.4,0,0,1,.36,19.09l-46.75,64.22c-8.56,3.47-17.18,5.83-22.2,5.83H153.53c-20.31,0-30.46-19.82-16.07-31.38l106-85.22q21-17.32,26.51-30t5.49-36.5v-21q0-36.81-11.56-50.42t-45-13.61H92.12q-33.41,0-44.85,13.61T35.83,82.76V113c0,7.38,5.46,14,13.88,16.92L53,131c15,5.13,31.66-3.76,31.66-16.92V92.77c0-10.14,10.2-18.37,22.77-18.37h95.06c12.58,0,22.77,8.23,22.77,18.37v16.76a16.77,16.77,0,0,1-6.58,12.93L54.51,256.27Q37,270.82,30.11,282.56T23.22,316v11.32c0,10.15,10.19,18.37,22.77,18.37l250.3-1.13a30.77,30.77,0,0,0,4.46-.34,28.79,28.79,0,0,0,4.42.34h5.42c8.16,0,15.69-3.52,19.75-9.23l45.75-64.36c8.56-12,30-12.36,39.07-.59l50.71,65.54c4.16,5.37,11.46,8.64,19.32,8.64H498.7C516.65,344.53,527.54,328.57,518,316.34Z"/><path class="cls-3" d="M46,355c-19,0-34.38-12.44-34.38-27.73V316c0-16,2.62-28.22,8-37.41,5.19-8.85,13.88-18.27,26.58-28.81L210.41,115.87a8.19,8.19,0,0,0,3.23-6.34V92.77c0-5-5-9-11.17-9H107.41c-6.15,0-11.16,4-11.16,9v21.31c0,15.31-15.42,27.76-34.37,27.76a41.54,41.54,0,0,1-13.44-2.22l-3.27-1.12c-12.73-4.36-21-14.38-21-25.53V82.76c0-26.71,4.4-44.92,13.44-55.68C47.55,15.33,65.87,9.36,92.11,9.36H218.94c26.21,0,44.56,6,54.53,17.69,7.78,9.16,12.16,23.71,13.3,44.3a40.62,40.62,0,0,1,18-4h12.32c11.86,0,22.71,4.82,29.05,12.9L387.57,133c3,3.78,7.58,4.19,9.42,4.19s6.67-.43,9.6-4.4l38.39-52c6.18-8.35,17.49-13.54,29.54-13.54h3.62c12.58,0,23.78,5.28,29.95,14.13s6,19.3-.55,28l-64,85.17a7.53,7.53,0,0,0,.11,9.49l84.1,107.25c6.8,8.68,7.2,19.22,1.06,28.21s-17.39,14.35-30.12,14.35H485.19c-11.95,0-22.85-4.87-29.17-13l-50.71-65.54c-3-3.82-7.6-4.23-9.46-4.23s-6.79.44-9.69,4.52L340.41,340c-6.11,8.59-17.54,13.93-29.82,13.93h-5.42a41.08,41.08,0,0,1-4.43-.23,41.72,41.72,0,0,1-4.45.23L46,355ZM286,123.08a73.82,73.82,0,0,1-5.08,20.29c-4.27,9.87-13.82,20.81-29.17,33.47l-106.11,85.3c-4.91,3.95-3.11,8.52-2.44,9.82s3.39,5.57,10.32,5.57H289.39c1.73,0,6.86-1,14-3.67l45-61.77a7.53,7.53,0,0,0-.18-9.36Z"/><path class="cls-4" d="M518,315.21,433.85,208a15.41,15.41,0,0,1-.23-19.34l64-85.17c9.2-12.24-1.73-27.89-19.47-27.89h-3.62c-8,0-15.46,3.4-19.56,9l-38.4,52c-8.69,11.77-29.72,12-38.8.42l-41.44-52.8c-4.17-5.32-11.43-8.54-19.24-8.54H304.76c-17.92,0-28.82,15.92-19.27,28.15L358,196.62a15.4,15.4,0,0,1,.36,19.09l-46.75,64.22c-8.56,3.47-17.18,5.83-22.2,5.83H153.53c-20.31,0-30.46-19.82-16.07-31.38l106-85.22q21-17.32,26.51-30t5.49-36.5v-21q0-36.81-11.56-50.42t-45-13.61H92.12q-33.41,0-44.85,13.61T35.83,81.63v30.21c0,7.37,5.46,14,13.88,16.91L53,129.87C68,135,84.64,126.11,84.64,113V91.64c0-10.14,10.2-18.37,22.77-18.37h95.06c12.58,0,22.77,8.23,22.77,18.37v16.77a16.76,16.76,0,0,1-6.58,12.92L54.51,255.14Q37,269.69,30.11,281.43t-6.89,33.41v11.32c0,10.15,10.19,18.37,22.77,18.37l250.3-1.13a29.42,29.42,0,0,0,4.46-.34,28.79,28.79,0,0,0,4.42.34h5.42c8.16,0,15.69-3.52,19.75-9.23l45.75-64.36c8.56-12,30-12.36,39.07-.58l50.71,65.53c4.16,5.37,11.46,8.64,19.32,8.64H498.7C516.65,343.4,527.54,327.44,518,315.21Z"/></g></g></svg>